<?xml version="1.0" standalone="no"?>
<svg
        version="1.1"
        xmlns="http://www.w3.org/2000/svg"
        width="500pt"
        height="500pt"
        viewBox="0 0 500 500"
        preserveAspectRatio="xMidYMid meet"
>
    <g
            transform="translate(0,500) scale(0.1,-0.1)"
            fill="#ffffff"
            stroke="none"
    >
        <path
                d="M402 4243
         c5 -15 334 -795 1221 -2888
         107 -253 209 -495 227 -537
         l32 -78 614 0
         c586 0 614 1 623 18
         9 17 171 397 581 1367
         84 198 207 491 275 650
         398 940 625 1477 625 1481
         0 2 -296 4 -658 4
         l-659 0 -197 -472
         c-109 -260 -275 -656 -369 -881
         -94 -224 -174 -404 -178 -400
         -6 7 -203 485 -619 1508
         l-98 240 -712 3
         c-675 2 -712 1 -708 -15z"
        />
    </g>
</svg>